<?xml version="1.0" standalone="no"?>
<!DOCTYPE svg PUBLIC "-//W3C//DTD SVG 20010904//EN"
 "http://www.w3.org/TR/2001/REC-SVG-20010904/DTD/svg10.dtd">
<svg version="1.0" xmlns="http://www.w3.org/2000/svg"
 width="134.000000pt" height="134.000000pt" viewBox="0 0 134.000000 134.000000"
 preserveAspectRatio="xMidYMid meet">
<metadata>
Created by potrace 1.11, written by Peter Selinger 2001-2013
</metadata>
<g transform="translate(0.000000,134.000000) scale(0.100000,-0.100000)"
fill="#000000" stroke="none">
<path d="M588 1001 c-118 -38 -153 -166 -77 -278 19 -29 75 -95 124 -148 108
-116 139 -166 131 -214 -3 -18 -13 -43 -23 -54 -18 -20 -18 -20 25 -13 24 3
61 15 81 26 36 18 94 75 102 99 3 7 20 3 48 -11 107 -53 251 -14 316 85 28 43
4 58 -26 15 -13 -18 -30 -39 -39 -46 -30 -26 -96 -52 -131 -52 l-35 0 1 75 c0
42 -2 80 -5 85 -3 5 -37 10 -75 12 -91 4 -83 22 9 23 45 0 71 5 73 12 3 9 -22
13 -88 15 -63 2 -94 7 -97 16 -3 9 19 12 86 12 63 0 91 4 94 13 2 6 4 45 3 85
-1 71 -1 72 25 72 45 0 116 -29 145 -60 28 -29 55 -39 55 -21 0 17 -56 64 -98
83 -61 28 -155 27 -209 -1 -48 -24 -97 -73 -114 -113 -6 -16 -14 -28 -18 -28
-11 0 -174 180 -196 216 -18 30 -19 35 -4 49 34 34 122 21 194 -28 25 -17 43
-23 49 -17 14 14 -10 38 -68 68 -42 21 -67 26 -141 29 -49 1 -102 -2 -117 -6z"/>
<path d="M440 908 c-11 -18 -23 -49 -26 -69 l-6 -36 -44 24 c-84 47 -213 29
-287 -40 -15 -14 -27 -31 -27 -37 0 -19 25 -10 52 19 29 30 103 61 148 61 26
0 26 0 25 -82 l0 -83 99 -5 c67 -3 101 -9 104 -17 3 -10 -21 -13 -97 -13 -56
0 -103 -4 -106 -10 -8 -12 -11 -12 113 -14 65 -1 102 2 102 9 0 5 12 -3 27
-20 14 -16 46 -52 72 -80 120 -128 137 -171 75 -188 -44 -13 -103 7 -180 59
-49 33 -69 43 -78 34 -16 -16 3 -41 65 -78 79 -48 152 -67 201 -53 49 15 72
49 64 95 -5 26 -38 69 -122 163 -162 178 -199 262 -159 357 19 45 11 47 -15 4z"/>
<path d="M278 568 c-2 -7 -4 -46 -3 -85 l1 -73 -35 0 c-35 0 -101 26 -131 52
-9 7 -26 28 -39 46 -16 23 -27 30 -34 23 -19 -19 40 -88 104 -121 118 -61 273
-12 329 105 12 24 19 49 15 55 -9 15 -202 13 -207 -2z"/>
</g>
</svg>
